<?xml version="1.0" standalone="no"?><!DOCTYPE svg PUBLIC "-//W3C//DTD SVG 1.1//EN" "http://www.w3.org/Graphics/SVG/1.1/DTD/svg11.dtd"><svg t="1665200744057" class="icon" viewBox="0 0 1244 1024" version="1.1" xmlns="http://www.w3.org/2000/svg" p-id="2552" xmlns:xlink="http://www.w3.org/1999/xlink" width="155.5" height="128"><path d="M1243.574857 656.603429c0-177.883429-176.054857-322.852571-373.869714-322.852571-209.444571 0-374.345143 144.969143-374.345143 322.852571 0 178.176 164.937143 322.852571 374.345143 322.852571 43.812571 0 88.027429-11.190857 132.059429-22.345143l120.722286 66.852571-33.097143-111.177143C1177.709714 845.787429 1243.574857 756.918857 1243.574857 656.603429zM748.324571 600.941714c-21.906286 0-44.032-22.016-44.032-44.507429 0-22.198857 22.125714-44.544 44.032-44.544 33.316571 0 55.113143 22.308571 55.113143 44.544C803.437714 578.925714 781.641143 600.941714 748.324571 600.941714zM990.427429 600.941714c-21.796571 0-43.702857-22.016-43.702857-44.507429 0-22.198857 21.942857-44.544 43.702857-44.544 32.987429 0 55.076571 22.308571 55.076571 44.544C1045.504 578.925714 1023.414857 600.941714 990.427429 600.941714zM841.874286 309.869714c14.299429 0 28.342857 1.024 42.349714 2.596571-38.070857-179.236571-227.657143-312.429714-444.086857-312.429714-241.956571 0-440.137143 166.692571-440.137143 378.368 0 122.221714 65.938286 222.537143 176.128 300.361143L132.096 812.580571l153.856-77.970286c55.076571 11.008 99.254857 22.308571 154.185143 22.308571 13.824 0 27.501714-0.694857 41.069714-1.755429-8.557714-29.732571-13.568-60.891429-13.568-93.257143C467.638857 467.565714 632.795429 309.869714 841.874286 309.869714zM605.184 189.220571c33.133714 0 55.113143 22.052571 55.113143 55.515429 0 33.389714-21.979429 55.661714-55.113143 55.661714-32.950857 0-66.084571-22.272-66.084571-55.661714C539.099429 211.236571 572.233143 189.220571 605.184 189.220571zM297.142857 300.397714c-32.950857 0-66.267429-22.272-66.267429-55.661714 0-33.462857 33.28-55.515429 66.267429-55.515429 32.987429 0 54.966857 22.052571 54.966857 55.515429C352.109714 278.089143 330.130286 300.397714 297.142857 300.397714z" p-id="2553"></path></svg>